# xmcd
#
# Track frame offsets: 
#        150
#        48430
#        87170
#        111597
#        164370
#        213612
#
# Disc length: 3251 seconds
#
# Revision: 4
# Processed by: cddbd v1.5.2PL0 Copyright (c) Steve Scherf et al.
# Submitted via: ExactAudioCopy v1.3
#
DISCID=520cb106
DTITLE=John Coltrane - Interstellar Space [Remastered 2000]
DYEAR=1974
DGENRE=Jazz
TTITLE0=Mars
TTITLE1=Venus
TTITLE2=Jupiter
TTITLE3=Saturn
TTITLE4=Leo [Bonus Track]
TTITLE5=Jupiter Variation [Bonus Track]
EXTD=YEAR: 1967
EXTT0=
EXTT1=
EXTT2=
EXTT3=
EXTT4=
EXTT5=
PLAYORDER=
